<svg width="99" height="95" viewBox="0 0 99 95" fill="none" xmlns="http://www.w3.org/2000/svg">
<path d="M34.0218 80.0561C35.714 80.0561 37.0857 78.7286 37.0857 77.091C37.0857 75.4535 35.714 74.126 34.0218 74.126C32.3297 74.126 30.9579 75.4535 30.9579 77.091C30.9579 78.7286 32.3297 80.0561 34.0218 80.0561Z" stroke="#1E4D38" stroke-width="6.09388" stroke-linecap="round" stroke-linejoin="round"/>
<path d="M76.9162 80.0561C78.6084 80.0561 79.9801 78.7286 79.9801 77.091C79.9801 75.4535 78.6084 74.126 76.9162 74.126C75.2241 74.126 73.8524 75.4535 73.8524 77.091C73.8524 78.7286 75.2241 80.0561 76.9162 80.0561Z" stroke="#1E4D38" stroke-width="6.09388" stroke-linecap="round" stroke-linejoin="round"/>
<path d="M9.51074 14.8252H21.7663L30.9579 65.231H79.9801" stroke="#1E4D38" stroke-width="6.09388" stroke-linecap="round" stroke-linejoin="round"/>
<path d="M30.958 53.3712H78.724C79.0783 53.3714 79.4217 53.2528 79.6958 53.0356C79.9699 52.8183 80.1577 52.5158 80.2272 52.1796L85.7422 25.4942C85.7867 25.279 85.7813 25.0569 85.7263 24.844C85.6714 24.6311 85.5683 24.4327 85.4245 24.263C85.2807 24.0933 85.0997 23.9567 84.8947 23.8629C84.6897 23.7691 84.4657 23.7206 84.239 23.7207H24.8303" stroke="#1E4D38" stroke-width="6.09388" stroke-linecap="round" stroke-linejoin="round"/>
</svg>
