<svg width="17" height="18" viewBox="0 0 17 18" fill="none" xmlns="http://www.w3.org/2000/svg">
<path d="M6.20913 17.4984C5.66538 17.4984 5.15038 17.2446 4.82038 16.8071L0.354131 10.9059C0.215729 10.7237 0.11465 10.5161 0.0566941 10.2948C-0.00126182 10.0735 -0.0149539 9.84298 0.0164031 9.6164C0.0477602 9.38982 0.123549 9.17165 0.239422 8.97443C0.355294 8.77721 0.50897 8.60481 0.691631 8.46712C0.873828 8.32833 1.08167 8.22693 1.3032 8.16876C1.52472 8.11058 1.75557 8.09678 1.98245 8.12815C2.20933 8.15951 2.42777 8.23543 2.6252 8.35152C2.82264 8.46762 2.99517 8.6216 3.13288 8.80462L6.07163 12.6846L13.4604 0.819617C13.7054 0.427867 14.0958 0.149301 14.546 0.045022C14.9962 -0.0592567 15.4693 0.0192666 15.8616 0.263368C16.6779 0.770868 16.9291 1.84587 16.4191 2.66337L7.68913 16.6759C7.5401 16.9161 7.33469 17.1164 7.09072 17.2593C6.84675 17.4022 6.57159 17.4834 6.28913 17.4959L6.20913 17.4984Z" fill="#00533A"/>
</svg>
