<svg width="14" height="14" viewBox="0 0 14 14" fill="none" xmlns="http://www.w3.org/2000/svg">
<path d="M7.21983 12.7233C7.93963 12.7233 8.65238 12.5816 9.31739 12.3061C9.98239 12.0307 10.5866 11.6269 11.0956 11.1179C11.6046 10.609 12.0083 10.0047 12.2838 9.33972C12.5592 8.67472 12.701 7.96197 12.701 7.24217C12.701 6.52238 12.5592 5.80963 12.2838 5.14462C12.0083 4.47962 11.6046 3.87538 11.0956 3.3664C10.5866 2.85743 9.98239 2.45369 9.31739 2.17823C8.65238 1.90278 7.93963 1.76101 7.21983 1.76101C5.76614 1.76101 4.37198 2.33848 3.34406 3.3664C2.31615 4.39432 1.73867 5.78848 1.73867 7.24217C1.73867 8.69587 2.31615 10.09 3.34406 11.1179C4.37198 12.1459 5.76614 12.7233 7.21983 12.7233ZM13.919 7.24217C13.919 10.942 10.9196 13.9414 7.21983 13.9414C3.52005 13.9414 0.52063 10.942 0.52063 7.24217C0.52063 3.54238 3.52005 0.542969 7.21983 0.542969C10.9196 0.542969 13.919 3.54238 13.919 7.24217ZM9.04689 9.93038L6.61082 7.49431V3.28355H7.82885V6.99004L9.90804 9.06923L9.04689 9.93038Z" fill="#A7A7A7"/>
</svg>
