<svg width="82" height="81" viewBox="0 0 82 81" fill="none" xmlns="http://www.w3.org/2000/svg">
<path d="M7.42765 9.87215C8.21791 6.85707 10.9662 5.03494 13.8555 5.03494C15.6373 5.03494 17.2581 5.7044 18.4913 6.79667C19.851 5.65614 21.569 5.03101 23.3436 5.03101C25.1183 5.03101 26.8363 5.65614 28.196 6.79667C29.4718 5.659 31.1224 5.03175 32.8318 5.03494C35.7211 5.03494 38.4694 6.85707 39.2597 9.87215C40.0147 12.7513 40.961 17.3922 40.961 22.6523C40.9609 25.5896 40.2263 28.4803 38.8241 31.0614C37.4219 33.6424 35.3966 35.8319 32.9325 37.4307C31.5684 38.3216 30.8939 39.4693 30.8939 40.4508V42.4441C30.8939 42.5582 30.9006 42.6689 30.9141 42.7763C31.0852 44.0246 31.7043 48.6605 32.2832 53.4675C32.852 58.1839 33.4107 63.3282 33.4107 65.4372C33.4107 68.1072 32.3501 70.6678 30.4621 72.5557C28.5742 74.4436 26.0136 75.5043 23.3436 75.5043C20.6737 75.5043 18.1131 74.4436 16.2252 72.5557C14.3372 70.6678 13.2766 68.1072 13.2766 65.4372C13.2766 63.3231 13.8353 58.1889 14.4041 53.4675C14.983 48.6605 15.6021 44.0246 15.7732 42.7763L15.7934 42.4441V40.4508C15.7934 39.4693 15.1189 38.3216 13.7548 37.4307C11.2907 35.8319 9.26537 33.6424 7.86319 31.0614C6.46101 28.4803 5.72644 25.5896 5.72632 22.6523C5.72632 17.3922 6.67262 12.7513 7.42765 9.87215ZM30.8939 25.169C30.8939 25.8365 30.6288 26.4767 30.1568 26.9487C29.6848 27.4206 29.0447 27.6858 28.3772 27.6858C27.7097 27.6858 27.0695 27.4206 26.5976 26.9487C26.1256 26.4767 25.8604 25.8365 25.8604 25.169V12.5852C25.8604 11.9177 25.5953 11.2776 25.1233 10.8056C24.6513 10.3336 24.0111 10.0685 23.3436 10.0685C22.6762 10.0685 22.036 10.3336 21.564 10.8056C21.092 11.2776 20.8269 11.9177 20.8269 12.5852V25.169C20.8269 25.8365 20.5617 26.4767 20.0897 26.9487C19.6178 27.4206 18.9776 27.6858 18.3101 27.6858C17.6426 27.6858 17.0025 27.4206 16.5305 26.9487C16.0585 26.4767 15.7934 25.8365 15.7934 25.169V12.0064C15.7934 11.4924 15.5892 10.9995 15.2258 10.6361C14.8623 10.2726 14.3694 10.0685 13.8555 10.0685C13.0199 10.0685 12.4461 10.5668 12.2951 11.1507C11.3031 14.905 10.7873 18.7692 10.7598 22.6523C10.7596 24.7514 11.2845 26.8173 12.2867 28.6618C13.289 30.5062 14.7367 32.0707 16.4981 33.2126C18.7078 34.6472 20.8269 37.169 20.8269 40.4508V42.4441C20.8269 42.7797 20.8051 43.1152 20.7615 43.4508C20.5903 44.689 19.9762 49.2947 19.4024 54.0715C18.8185 58.9289 18.3101 63.7057 18.3101 65.4372C18.3101 66.7722 18.8404 68.0525 19.7844 68.9965C20.7284 69.9404 22.0087 70.4707 23.3436 70.4707C24.6786 70.4707 25.9589 69.9404 26.9029 68.9965C27.8469 68.0525 28.3772 66.7722 28.3772 65.4372C28.3772 63.7057 27.8738 58.9289 27.2849 54.0665C26.7111 49.2947 26.097 44.689 25.9258 43.4458C25.8876 43.1148 25.8657 42.7822 25.8604 42.4491V40.4558C25.8604 37.174 27.9795 34.6522 30.1892 33.2176C31.9513 32.0752 33.3995 30.51 34.4018 28.6646C35.404 26.8192 35.9285 24.7523 35.9275 22.6523C35.9275 17.961 35.0818 13.7731 34.3922 11.1507C34.2412 10.5718 33.6624 10.0685 32.8318 10.0685C32.3179 10.0685 31.825 10.2726 31.4615 10.6361C31.0981 10.9995 30.8939 11.4924 30.8939 12.0064V25.169ZM45.9945 27.6858C45.9945 21.6784 48.3809 15.9171 52.6288 11.6692C56.8766 7.42136 62.638 5.03494 68.6454 5.03494C69.3128 5.03494 69.953 5.3001 70.425 5.77208C70.897 6.24406 71.1621 6.88421 71.1621 7.5517V37.6169L71.2578 38.5079C71.6582 42.2646 72.0424 46.023 72.4104 49.783C73.0296 56.1051 73.6789 63.1923 73.6789 65.4372C73.6789 68.1072 72.6182 70.6678 70.7303 72.5557C68.8424 74.4436 66.2818 75.5043 63.6118 75.5043C60.9419 75.5043 58.3813 74.4436 56.4934 72.5557C54.6054 70.6678 53.5448 68.1072 53.5448 65.4372C53.5448 63.1923 54.1941 56.1051 54.8132 49.783C55.1303 46.5766 55.4475 43.5062 55.684 41.231L55.7847 40.2696H51.028C49.6931 40.2696 48.4128 39.7393 47.4688 38.7953C46.5248 37.8513 45.9945 36.5711 45.9945 35.2361V27.6858ZM61.08 38.0196L60.9743 39.0364C60.5808 42.7819 60.1983 46.5285 59.8266 50.2762C59.1874 56.7544 58.5783 63.5144 58.5783 65.4372C58.5783 66.7722 59.1086 68.0525 60.0526 68.9965C60.9966 69.9404 62.2769 70.4707 63.6118 70.4707C64.9468 70.4707 66.2271 69.9404 67.1711 68.9965C68.115 68.0525 68.6454 66.7722 68.6454 65.4372C68.6454 63.5094 68.0363 56.7544 67.397 50.2762C67.0278 46.5283 66.6453 42.7816 66.2494 39.0364L66.1437 38.0247L66.1286 37.7528V10.2446C61.9349 10.8499 58.0999 12.9464 55.3264 16.1497C52.553 19.3531 51.0269 23.4487 51.028 27.6858V35.2361H58.5783C58.9312 35.2362 59.2802 35.3106 59.6025 35.4543C59.9249 35.5981 60.2133 35.808 60.4493 36.0705C60.6852 36.333 60.8632 36.6422 60.9719 36.978C61.0806 37.3138 61.1174 37.6687 61.08 38.0196Z" fill="#1E4D38"/>
</svg>
