<svg width="27" height="28" viewBox="0 0 27 28" fill="none" xmlns="http://www.w3.org/2000/svg">
<path d="M16.2856 22.6191L12.3174 18.6508M16.2856 22.6191L20.2539 18.6508M16.2856 22.6191V20.873C16.2856 17.3175 16.2856 15.5397 15.5936 14.181C14.9849 12.9864 14.0136 12.0151 12.819 11.4064C11.4603 10.7144 9.6825 10.7144 6.12696 10.7144H2" stroke="#1E4D38" stroke-width="2.38094" stroke-linecap="round" stroke-linejoin="round"/>
<path d="M25.5231 8.33337H20.2533C19.8323 8.33337 19.4286 8.16613 19.1309 7.86846C18.8332 7.57078 18.666 7.16705 18.666 6.74607V1.47626C19.2581 1.7461 19.7009 2.22546 20.1533 2.67784L24.3215 6.84607C24.7739 7.29845 25.2549 7.74131 25.5231 8.33337Z" fill="#1E4D38"/>
<path d="M5.57227 10.7143C5.57227 11.0301 5.69769 11.3329 5.92095 11.5561C6.1442 11.7794 6.447 11.9048 6.76274 11.9048C7.07847 11.9048 7.38127 11.7794 7.60453 11.5561C7.82778 11.3329 7.95321 11.0301 7.95321 10.7143H5.57227ZM7.95321 17.0635C7.95321 16.7478 7.82778 16.445 7.60453 16.2217C7.38127 15.9985 7.07847 15.873 6.76274 15.873C6.447 15.873 6.1442 15.9985 5.92095 16.2217C5.69769 16.445 5.57227 16.7478 5.57227 17.0635H7.95321ZM25.5245 8.3334V9.52387C25.7237 9.52388 25.9197 9.47394 26.0945 9.37861C26.2694 9.28328 26.4175 9.14561 26.5254 8.9782C26.6332 8.81079 26.6974 8.619 26.7119 8.42039C26.7265 8.22177 26.691 8.02268 26.6087 7.84134L25.5245 8.3334ZM18.6674 1.47629L19.1595 0.392167C18.9782 0.309852 18.7791 0.274346 18.5804 0.288898C18.3818 0.30345 18.19 0.367596 18.0226 0.475463C17.8552 0.583329 17.7176 0.73147 17.6222 0.906319C17.5269 1.08117 17.4769 1.27714 17.477 1.47629H18.6674ZM20.7309 25.3968H11.8421V27.7777H20.7309V25.3968ZM11.8421 2.38105H16.5643V0.00010582H11.8421V2.38105ZM24.6198 10.4366V21.5079H27.0007V10.4366H24.6198ZM19.3135 3.51914L23.4801 7.68737L25.1642 6.00484L20.9976 1.8366L19.3135 3.51914ZM7.95321 10.7143V6.26992H5.57227V10.7143H7.95321ZM7.95321 21.5079V17.0635H5.57227V21.5079H7.95321ZM23.4801 7.68737C24.0706 8.27625 24.2214 8.43975 24.3277 8.61117L26.3579 7.36832C26.0706 6.89848 25.6738 6.51436 25.1642 6.00484L23.4801 7.68737ZM20.9976 1.8366C20.4881 1.32867 20.1024 0.931847 19.6325 0.64296L18.3897 2.6747C18.5611 2.77946 18.723 2.92866 19.3135 3.51914L20.9976 1.8366ZM16.5643 2.38105C17.4801 2.38105 17.9563 2.40962 18.3897 2.6747L19.6325 0.64296C18.542 -0.0237036 17.3833 0.00010582 16.5627 0.00010582L16.5643 2.38105ZM27.0007 10.4366C27.0007 9.61752 27.0261 8.45879 26.3579 7.36832L24.3277 8.61117C24.5944 9.04451 24.6198 9.52069 24.6198 10.4366H27.0007ZM25.5245 7.14293H20.2547V9.52387H25.5245V7.14293ZM19.8579 6.7461V1.47629H17.477V6.7461H19.8579ZM20.2547 7.14293C20.1495 7.14293 20.0486 7.10112 19.9741 7.0267C19.8997 6.95228 19.8579 6.85135 19.8579 6.7461H17.477C17.477 8.27943 18.7214 9.52387 20.2547 9.52387V7.14293ZM18.1754 2.55882C18.5246 2.71755 18.796 3.00168 19.3135 3.51914L20.996 1.8366C20.6071 1.44613 19.9944 0.773118 19.1595 0.392167L18.1754 2.55882ZM23.4801 7.68737C23.9976 8.20483 24.2817 8.47625 24.442 8.82704L26.6087 7.84134C26.2277 7.00801 25.5547 6.39531 25.1642 6.00484L23.4801 7.68737ZM11.8421 25.3968C10.05 25.3968 9.19764 25.1 8.74368 24.6619C8.29924 24.2333 7.95321 23.392 7.95321 21.5079H5.57227C5.57227 23.546 5.9183 25.2444 7.09131 26.3746C8.2532 27.4968 9.9405 27.7777 11.8421 27.7777V25.3968ZM24.6198 21.5079C24.6198 23.3 24.323 24.1524 23.8849 24.6063C23.4563 25.0508 22.615 25.3968 20.7309 25.3968V27.7777C22.769 27.7777 24.4674 27.4317 25.5976 26.2587C26.7198 25.0968 27.0007 23.4095 27.0007 21.5079H24.6198ZM7.95321 6.26992C7.95321 4.47786 8.25003 3.62548 8.68812 3.17152C9.11669 2.72708 9.95796 2.38105 11.8421 2.38105V0.00010582C9.80399 0.00010582 8.10559 0.346135 6.97385 1.51915C5.85322 2.68104 5.57227 4.36834 5.57227 6.26992H7.95321Z" fill="#1E4D38"/>
</svg>
