<svg width="75" height="75" viewBox="0 0 75 75" fill="none" xmlns="http://www.w3.org/2000/svg">
<path d="M42.8984 3H8.31979C6.9089 3 5.55579 3.56048 4.55813 4.55813C3.56048 5.55579 3 6.9089 3 8.31979V66.8375C3 68.2484 3.56048 69.6015 4.55813 70.5992C5.55579 71.5968 6.9089 72.1573 8.31979 72.1573H56.1979C57.6088 72.1573 58.9619 71.5968 59.9596 70.5992C60.9572 69.6015 61.5177 68.2484 61.5177 66.8375V42.8984M3 56.1979H61.5177M18.9594 16.2995H29.599M18.9594 29.599H24.2792" stroke="#1E4D38" stroke-width="5.31979" stroke-linecap="round" stroke-linejoin="round"/>
<path d="M48.1863 40.2709L32.2269 43.1435L34.8868 26.9714L57.3895 4.57505C57.884 4.07643 58.4724 3.68067 59.1207 3.41059C59.7689 3.14051 60.4643 3.00146 61.1666 3.00146C61.8688 3.00146 62.5642 3.14051 63.2124 3.41059C63.8607 3.68067 64.4491 4.07643 64.9436 4.57505L70.5826 10.214C71.0812 10.7086 71.477 11.2969 71.747 11.9452C72.0171 12.5935 72.1562 13.2888 72.1562 13.9911C72.1562 14.6934 72.0171 15.3887 71.747 16.0369C71.477 16.6852 71.0812 17.2736 70.5826 17.7681L48.1863 40.2709Z" stroke="#1E4D38" stroke-width="5.31979" stroke-linecap="round" stroke-linejoin="round"/>
</svg>
